<?xml version="1.0" encoding="UTF-8" standalone="no"?>
<svg
   width="629.40857mm"
   height="971.91321mm"
   viewBox="0 0 629.40857 971.91321"
   version="1.1"
   id="svg8"
   inkscape:version="1.1-dev (ddb55ca, 2020-02-02)"
   sodipodi:docname="concept.svg"
   xmlns:inkscape="http://www.inkscape.org/namespaces/inkscape"
   xmlns:sodipodi="http://sodipodi.sourceforge.net/DTD/sodipodi-0.dtd"
   xmlns="http://www.w3.org/2000/svg"
   xmlns:svg="http://www.w3.org/2000/svg"
   xmlns:rdf="http://www.w3.org/1999/02/22-rdf-syntax-ns#"
   xmlns:cc="http://creativecommons.org/ns#"
   xmlns:dc="http://purl.org/dc/elements/1.1/">
  <defs
     id="defs2" />
  <sodipodi:namedview
     id="base"
     pagecolor="#ffffff"
     bordercolor="#666666"
     borderopacity="1.0"
     inkscape:pageopacity="0.0"
     inkscape:pageshadow="2"
     inkscape:zoom="0.25000001"
     inkscape:cx="-5273.9999"
     inkscape:cy="-9353.9998"
     inkscape:document-units="mm"
     inkscape:current-layer="layer1"
     showgrid="false"
     showguides="true"
     inkscape:guide-bbox="true"
     inkscape:snap-global="true"
     inkscape:window-width="3840"
     inkscape:window-height="2131"
     inkscape:window-x="3191"
     inkscape:window-y="-9"
     inkscape:window-maximized="1"
     inkscape:object-paths="false"
     inkscape:snap-bbox="true"
     inkscape:snap-bbox-midpoints="true"
     inkscape:bbox-nodes="true"
     inkscape:bbox-paths="false"
     inkscape:snap-bbox-edge-midpoints="true"
     inkscape:snap-nodes="false"
     inkscape:snap-page="true"
     inkscape:document-rotation="0"
     inkscape:showpageshadow="2"
     inkscape:pagecheckerboard="0"
     inkscape:deskcolor="#d1d1d1">
    <sodipodi:guide
       position="1177.7373,-2895.9392"
       orientation="1,0"
       id="guide911"
       inkscape:locked="false" />
    <sodipodi:guide
       position="917.63056,-2039.6304"
       orientation="1,0"
       id="guide915"
       inkscape:locked="false" />
    <sodipodi:guide
       position="1300.5511,-2159.9773"
       orientation="1,0"
       id="guide921"
       inkscape:locked="false" />
    <sodipodi:guide
       position="2642.654,-3116.2107"
       orientation="1,0"
       id="guide931"
       inkscape:locked="false" />
    <sodipodi:guide
       position="1001.1256,-4245.9711"
       orientation="0,1"
       inkscape:locked="false"
       id="guide4696" />
    <sodipodi:guide
       position="1240.5991,-4078.3396"
       orientation="1,0"
       id="guide4781"
       inkscape:locked="false" />
    <sodipodi:guide
       position="1101.5845,-2826.7274"
       orientation="1,0"
       id="guide1347"
       inkscape:locked="false" />
    <sodipodi:guide
       position="1101.5845,-3836.3774"
       orientation="0,1"
       id="guide1357"
       inkscape:locked="false" />
    <sodipodi:guide
       position="2300.019,-2053.5076"
       orientation="0,1"
       id="guide1710"
       inkscape:locked="false" />
    <sodipodi:guide
       position="2765.4678,-2833.0774"
       orientation="0,1"
       id="guide1720"
       inkscape:locked="false" />
    <sodipodi:guide
       position="843.53096,-2478.6394"
       orientation="1,0"
       id="guide1722"
       inkscape:locked="false" />
    <sodipodi:guide
       position="2765.4678,-2833.0774"
       orientation="1,0"
       id="guide1724"
       inkscape:locked="false" />
    <sodipodi:guide
       position="1361.4053,-1217.4654"
       orientation="0,1"
       id="guide1090"
       inkscape:locked="false" />
    <sodipodi:guide
       position="1838.3918,-1417.3229"
       orientation="1,0"
       id="guide1092"
       inkscape:locked="false" />
    <sodipodi:guide
       position="1658.2347,-1503.5461"
       orientation="0,1"
       id="guide1104"
       inkscape:locked="false" />
  </sodipodi:namedview>
  <metadata
     id="metadata5">
    <rdf:RDF>
      <cc:Work
         rdf:about="">
        <dc:format>image/svg+xml</dc:format>
        <dc:type
           rdf:resource="http://purl.org/dc/dcmitype/StillImage" />
        <dc:title />
      </cc:Work>
    </rdf:RDF>
  </metadata>
  <g
     inkscape:label="Layer 1"
     inkscape:groupmode="layer"
     id="layer1"
     transform="translate(845.46777,2833.0773)">
    <path
       id="path3518"
       style="opacity:1;fill:#ffffff;stroke:none;stroke-width:7.99999;stroke-linecap:butt;stroke-linejoin:miter;stroke-opacity:1"
       inkscape:label="home.graphic"
       d="m -582.33914,-2833.0771 v 0 c -1.94252,0 -3.8817,0.011 -5.81671,0.016 -21.77909,0.1252 -41.08148,1.2806 -64.77537,8.5598 -10.36431,3.184 -30.06703,-2.2095 -43.33845,3.6235 -15.67659,6.89 -36.23422,27.0547 -37.77081,34.8201 -7.88921,-0.262 -46.18823,33.6724 -64.36402,55.364 -12.44402,14.8508 -21.05692,32.6342 -29.60801,50.0202 -6.92791,14.0846 -17.45528,43.7369 -17.45528,43.7369 0,0 17.88951,-16.8882 17.44752,-6.2988 -0.2663,6.3804 -13.02594,34.3634 -13.03694,40.6166 20.84429,-20.9127 15.51252,18.2039 18.65312,38.5501 1.22762,7.9045 2.92833,25.6106 5.60173,38.1992 1.37131,6.4572 4.0812,30.5154 6.82128,36.0097 0.27382,5.1652 1.23616,10.0582 2.41848,13.3057 0.5516,1.5152 1.10529,3.1253 1.69859,4.7263 -1.13098,8.703 -2.97336,24.3037 -2.93676,33.6465 0.041,10.4812 2.52801,20.8203 3.21529,31.2787 0.77671,11.8187 -2.22768,24.1282 1.0232,35.5172 1.2225,4.283 6.72362,11.5471 6.72362,11.5471 0,0 0.68265,20.6855 1.60766,30.9868 0.92689,10.3224 0.58883,21.035 3.94652,30.8399 2.7667,8.0791 6.25832,16.8402 13.00851,22.0711 4.90071,3.7974 17.13783,5.3078 18.93321,5.5123 1.925,8.1661 4.33956,16.6 7.50808,24.0269 13.29079,31.1547 32.3396,61.2134 54.5424,89.2886 l 5.6906,57.2058 c -6.6875,9.7172 -11.92083,15.8884 -18.33014,29.9171 -6.4093,14.0287 -10.15217,29.3936 -15.07919,52.3653 -4.92699,22.9717 -16.55871,72.8629 -11.7016,82.4445 3.013,5.9437 17.63202,13.9195 27.71252,17.553 9.976,3.5957 28.02212,6.1885 31.40273,5.0917 2.1967,-0.7129 4.49273,-5.0614 4.76303,-9.2455 0,0 -19.29739,-3.4563 -26.66609,-9.3178 -5.82498,-4.6334 -11.91812,-18.8825 -11.91812,-18.8825 15.04309,7.2395 35.66517,11.6078 52.63967,12.7615 19.46381,1.323 40.09117,2.5369 55.78679,18.6913 12.4533,13.1702 34.75548,44.0785 34.75548,44.0785 12.9717,-31.608 29.22794,-67.7186 49.89774,-89.009 0,0 17.34484,4.3484 24.18715,9.7001 11.46281,8.9655 18.20304,22.8411 25.53385,35.4123 9.33159,16.0021 8.27043,39.8244 23.22494,50.4869 7.3161,5.2162 26.11107,6.6952 26.11107,6.6952 0,0 36.63394,-27.2505 54.33414,-41.6564 23.23939,-18.9143 46.66758,-37.744 68.03978,-58.7452 20.9995,-20.6352 41.91939,-41.7692 58.8822,-65.8327 9.22869,-13.0919 22.96654,-42.2093 22.96654,-42.2093 0,0 -21.4875,-38.5908 -32.73599,-57.5934 -6.70528,-11.3276 -13.31309,-22.7357 -20.7114,-33.6233 -6.8685,-10.1078 -11.50871,-23.0072 -21.94182,-29.3713 -4.71728,-2.8773 -10.83225,-2.4202 -16.34833,-2.7435 -7.71851,-0.4525 -17.58728,0.9191 -23.16708,1.14 l -6.3536,-78.7611 c 1.84849,-0.3823 4.93395,-1.6065 5.73815,-5.5268 0.9053,-4.4132 1.27873,-16.3998 1.40404,-21.6891 1.43579,0.7318 2.84943,1.2598 4.10054,1.3932 10.88969,0.8845 24.07698,-8.1148 30.50458,-17.9147 4.37451,-8.5846 4.62267,-18.4868 5.26066,-27.943 0.4046,-5.9984 -0.92605,-18.0123 -0.92605,-18.0123 0,0 6.23404,-9.0004 8.20365,-14.0545 3.562,-9.14 4.97004,-19.0304 6.27404,-28.7517 2.4216,-18.5682 2.59032,-38.0381 0.31213,-56.8513 -1.0278,-8.4873 -2.03685,-17.4384 -6.25854,-24.8724 -1.58001,-2.7824 -4.43643,-5.6539 -6.79442,-6.7804 3.10499,-8.7239 3.3841,-45.1853 -5.5051,-60.5819 1.74511,-15.2427 4.08347,-32.1438 4.16615,-48.3051 0.086,-16.8796 1.43761,-34.4587 -3.83439,-50.494 -9.94339,-30.2448 -27.9041,-58.7164 -50.6925,-80.9491 -9.01071,-8.791 -20.3199,-16.0406 -32.49311,-19.2484 -8.6528,-2.2799 -19.40679,-1.5551 -26.83917,0.5235 0.21388,-9.9179 -10.60659,-19.931 -15.97319,-24.7758 -21.83442,-19.8393 -47.42736,-36.8031 -75.27036,-46.5559 -27.39398,-9.5954 -57.26226,-11.1204 -86.39937,-11.1273 z m 119.2444,113.6142 c 0.94271,6.092 11.63225,16.7188 19.07945,20.6442 28.84551,15.4852 34.53011,36.2085 40.51019,65.7691 3.82,18.8833 16.70812,50.3819 29.15534,68.1452 11.05368,15.775 18.68413,45.838 18.68413,45.838 l 7.96436,28.4712 c 0,0 2.72005,16.9536 3.80235,21.4111 1.97091,8.1161 5.68473,15.8099 7.00424,24.0569 1.20748,7.5478 1.13781,21.0842 1.04902,26.7079 l -8.75917,71.2587 -2.06187,59.3602 c 0,0 -3.07425,19.0234 -6.03374,28.1534 -5.89611,18.1896 -13.24737,36.1311 -23.17068,52.4758 -14.12721,23.269 -31.16884,45.1516 -51.06304,63.7326 -15.07459,14.0796 -32.4321,25.9601 -50.8186,35.3094 -21.624,10.9955 -44.58438,21.8787 -68.76479,23.8306 -23.45991,1.8933 -47.54049,-3.3556 -69.56009,-12.1217 -19.91252,-7.9275 -36.93385,-22.3933 -52.48415,-37.1425 -9.21449,-8.7397 -23.62182,-29.8932 -23.62182,-29.8932 l -0.0289,-0.1809 c 0,0 -16.30481,-19.1765 -23.38774,-29.5522 -12.43459,-18.2147 -24.13859,-34.3313 -31.90139,-53.6282 -7.06591,-17.5644 -9.84684,-37.8965 -12.85504,-55.3233 -5.04601,-29.2317 -11.17611,-61.099 -14.33711,-91.9618 -0.96179,-9.3906 -1.40042,-28.2841 -1.40042,-28.2841 l 4.26347,-2.1252 c 0,0 2.80117,-19.7543 3.14227,-31.0852 0.4912,-16.3219 1.90712,-24.2131 2.84893,-36.3207 0.71059,-9.1366 2.11407,-27.4113 2.11407,-27.4113 l -0.0522,-7.5954 c 0,0 0.61823,-33.0632 2.92852,-48.5557 2.72089,-18.2461 6.04496,-36.785 13.43226,-53.6892 8.88039,-20.3213 19.53209,-41.2897 36.39571,-55.6922 17.20329,-14.6924 39.41366,-25.5217 61.92388,-27.7823 16.87377,-1.6949 44.87161,4.5837 49.6326,11.1787 5.46611,-8.3894 25.97174,-11.8388 39.85752,-14.4886 33.57592,-6.4077 62.87916,2.5634 96.51246,-3.5093 z m 161.94669,229.5767 c 2.95873,-0.019 5.9317,0.467 8.60518,1.3622 3.15979,1.0581 5.72333,3.7803 7.51993,6.5866 3.18482,4.9747 4.27109,11.1346 5.02399,16.9933 2.5033,19.4794 0.73017,39.2933 -1.87534,58.8894 -1.47219,11.0725 -2.97008,22.6811 -8.40877,32.4374 -2.16641,3.8862 -9.22891,9.6433 -9.22891,9.6433 3.16532,14.4272 4.0621,35.5807 -6.3872,47.7934 -4.47561,5.2308 -12.39885,7.2636 -19.80086,5.8694 -4.44299,-0.837 -8.938,-5.7677 -11.8463,-9.6071 l 0.92398,-26.6118 8.77311,-71.3673 c 9.84999,-4.7994 9.01118,-17.1511 8.10699,-26.2707 -0.9793,-9.8769 -3.03284,-19.6911 -0.51004,-29.037 1.41269,-5.2329 3.80611,-11.0751 8.42841,-13.9061 3.09118,-1.8933 6.87176,-2.751 10.67583,-2.775 z m -499.84752,27.2319 c 1.58801,1.7315 3.53161,2.8302 6.01671,2.8355 1.8039,0 3.26334,0.8308 4.54234,2.2727 -2.6356,5.0716 -5.02978,15.2083 3.61582,31.0415 1.07508,1.969 3.32973,3.8109 5.98464,5.4359 0.1892,9.5047 0.57891,22.7834 1.38131,31.38 3.1083,33.2994 8.8546,66.2378 14.95361,98.9371 0.85439,4.581 1.8387,9.8341 3.02977,15.3355 -2.98069,-0.1614 -9.73955,-0.7511 -12.83435,-2.8613 -6.9559,-4.7433 -11.00723,-13.2307 -13.73974,-21.1941 -6.63397,-19.3342 -5.26169,-61.096 -5.26169,-61.096 0,0 -6.39476,-7.5146 -7.60055,-12.1316 -3.03241,-11.6101 2.45039,-23.9768 1.7539,-35.9564 -0.6101,-10.4939 -5.11612,-20.5956 -5.17591,-31.1072 -0.037,-6.4847 2.18474,-17.5883 3.33414,-22.8916 z m 456.37214,204.4955 c 1.9054,7.0057 4.54787,52.879 5.99498,70.8153 v -0.035 c 0,0 0.78262,10.8587 1.66812,22.086 0.44281,5.6137 0.5678,8.9824 1.32242,15.8243 1.19758,10.8583 -25.58368,37.3343 -42.47288,55.0339 -16.8892,17.6995 -39.1469,33.1829 -58.66101,49.844 -18.0944,15.4489 -36.50892,30.536 -54.17293,46.4752 -11.15589,10.0666 -22.69294,20.0477 -32.70083,31.0286 -18.84709,21.6499 -35.80591,48.9702 -45.89592,72.7826 0,0 -20.19065,-24.7985 -31.66266,-35.882 -6.4905,-6.2707 -13.5907,-11.9185 -20.90568,-17.2041 -6.81623,-4.9253 -14.76018,-8.1918 -21.33619,-13.4623 -8.8827,-7.1195 -17.12399,-15.717 -22.32628,-25.8423 -9.0039,-17.5242 -11.13795,-36.2014 -13.86065,-57.4575 -2.04211,-15.9427 -3.10168,-33.2715 -4.7067,-49.9019 -1.71259,-17.7456 -5.25341,-53.2256 -5.25341,-53.2256 0,0 9.43724,13.8559 15.47294,19.5807 16.2963,15.4569 34.13392,30.6176 55.00182,38.9257 23.2464,9.2552 49.42965,13.2774 74.30865,10.6154 26.54779,-2.8406 51.72136,-14.9548 75.10135,-27.8479 18.39211,-10.1426 35.00517,-23.6223 50.05276,-38.2752 20.03179,-19.5064 37.9735,-41.4896 52.70532,-65.2539 9.39281,-15.1517 22.31205,-48.5857 22.32678,-48.6239 z m 49.05386,83.7773 c 18.3764,13.9861 27.90322,33.3313 39.95311,51.369 11.39262,17.0538 30.40436,53.4903 30.40436,53.4903 0,0 -12.14536,25.7296 -20.29696,37.3026 -16.71399,23.7293 -37.3031,44.5972 -58.00111,64.9449 -21.23879,20.8792 -44.54554,39.5726 -67.64755,58.3695 -16.5844,13.494 -50.90232,39.0276 -50.90232,39.0276 0,0 -14.03654,-1.096 -19.49235,-4.9981 -14.13338,-10.1086 -12.66547,-32.9001 -21.4602,-48.0927 -7.50239,-12.96 -15.05505,-26.6007 -26.45936,-36.3058 -6.14228,-5.2271 -21.58214,-10.9394 -21.58214,-10.9394 0,0 14.47064,-13.7678 21.89633,-20.4437 18.3474,-16.4946 37.11625,-32.5184 55.96456,-48.4384 19.88849,-16.7984 40.78417,-32.4071 60.26917,-49.6719 12.58671,-11.1525 24.86171,-22.6856 36.53991,-34.786 8.80208,-9.1205 17.38358,-18.4954 25.22429,-28.4545 5.6228,-7.1419 10.03345,-10.8339 15.59026,-22.3734 z m -395.95411,86.0584 c 0,0 3.13544,31.0317 4.81004,44.3585 2.74979,21.8834 3.19114,40.433 13.34852,60.0103 5.61292,10.8183 13.41512,20.2374 23.11591,27.6153 6.36852,4.8435 17.9679,9.8749 17.9679,9.8749 -15.8596,1.4539 -30.29249,0.8857 -45.00448,-2.1322 -17.33072,-3.5552 -37.17216,-9.8597 -49.72254,-18.5637 0,0 4.22793,-34.0083 8.07495,-50.6749 3.77748,-16.3652 8.02899,-32.7785 14.68178,-48.2002 3.38892,-7.8557 12.72792,-22.288 12.72792,-22.288 z"
       sodipodi:nodetypes="cccsscsscsccscscssscsssccccssssscscscccssscssscssssccscccscscssccssssccsccsssccsscccsssssssccssssccssccsssscscscsssscsscccsssscccscsscsscsssccccsssssccsssssscssssssccccssscssscsssssccssscscsscs" />
    <path
       style="opacity:1;fill:#083b5a;fill-opacity:1;stroke:none;stroke-width:0.5;stroke-linecap:butt;stroke-linejoin:miter;stroke-opacity:1"
       d="m -442.20556,-2540.3597 c 5.3217,-0.028 10.6334,0.1619 15.9194,0.7353 8.8476,0.9596 17.862,2.4307 26.0175,5.9925 4.0496,1.7688 8.5302,3.7653 10.9617,7.4547 2.8131,4.2685 2.5049,9.9597 2.9233,15.0545 1.1452,13.9412 1.7677,28.2723 -1.1694,41.9489 -3.2844,16.5142 -8.3465,24.9436 -23.2395,29.5248 -9.0177,2.8261 -18.3901,4.562 -27.7714,5.7005 -13.6012,1.651 -27.3712,1.7089 -41.0719,1.6076 -13.5637,-0.1 -27.6157,1.6198 -40.6332,-2.1921 -5.2138,-1.5266 -9.855,-4.749 -14.1779,-8.0393 -4.2217,-3.2134 -7.9601,-7.0956 -11.2541,-11.2546 -2.9884,-3.773 -5.5424,-7.9264 -7.6006,-12.2775 -3.4784,-7.3538 -6.1179,-15.1545 -7.8931,-23.0936 -0.9628,-4.3056 -1.6212,-8.7458 -1.4614,-13.1548 0.1454,-4.0108 0.034,-8.4556 2.1922,-11.8396 9.3064,-10.7603 28.7842,-17.2228 41.0719,-20.0239 16.5305,-3.6957 31.1607,-4.5128 46.8519,-5.5894 10.0895,-0.6921 21.4654,-0.5082 30.3346,-0.554 z m 17.4542,13.3295 c -1.6073,0.045 -2.5069,1.8724 -1.5627,3.1739 l 18.125,25.7246 c 0.6327,0.9134 1.8886,1.1362 2.7967,0.4959 0.9082,-0.6401 1.1206,-1.8979 0.4729,-2.8006 l -18.125,-25.7247 c -0.3843,-0.5609 -1.0272,-0.8885 -1.7069,-0.8691 z m -266.4116,1.2276 c 1.7135,0 3.4275,0.016 5.1454,0.062 14.0823,0.4045 31.3858,1.7594 41.3639,3.8737 9.9781,2.1143 14.0277,2.2614 18.4164,6.2114 4.3887,3.9497 5.1304,6.5923 6.5045,13.8861 1.374,7.2941 0.6086,21.2908 -0.8041,29.2322 -1.4127,7.9418 -2.0455,12.6193 -5.3976,20.1457 -3.3521,7.5263 -9.5451,17.7427 -16.2879,23.1939 -6.7428,5.4507 -24.1322,9.4266 -42.0604,10.0555 -17.9282,0.6297 -35.9485,2.7675 -53.8738,1.5652 -9.0089,-0.6037 -21.1808,-2.3404 -26.8016,-5.6373 -12.3279,-6.658 -16.9507,-21.9606 -19.7352,-33.4788 -3.3326,-13.7854 -3.482,-31.7989 -2.5403,-43.9065 7.7103,-20.0513 40.3687,-21.2086 59.0176,-22.9914 12.9931,-0.9724 25.0586,-2.1907 37.0531,-2.2114 z m 260.0601,10.659 c -1.6076,0.026 -2.5294,1.8415 -1.6015,3.1544 l 9.7188,14.1777 c 0.6138,0.9393 1.8801,1.1901 2.8056,0.5556 0.9254,-0.6345 1.1479,-1.906 0.4929,-2.8173 l -9.7188,-14.1774 c -0.3768,-0.567 -1.0162,-0.9036 -1.697,-0.893 z m 81.1302,0.2124 c -6.9239,-5.1938 -21.5044,-14.5536 -21.5044,-14.5536 -0.3234,-1.0033 -1.2431,-2.952 -1.5906,-3.6066 -1.1479,-2.1617 -26.586,-10.4512 -40.6167,-12.0866 -37.737,-4.3987 -77.5568,-1.4761 -113.7915,6.5111 -10.2586,2.2611 -21.9218,8.5508 -29.3522,11.4723 -7.4304,2.9221 -9.8051,4.1773 -16.7432,5.4777 -6.9384,1.3002 -15.8915,2.5011 -23.6678,2.5839 -7.7763,0.083 -16.1478,0.5705 -21.9108,-0.7241 -5.763,-1.2946 -7.7359,-4.7377 -13.4358,-6.6141 -5.6999,-1.8764 -10.59,-3.3218 -21.9108,-5.0646 -11.3209,-1.7428 -30.6786,-2.6432 -45.8763,-2.521 -15.1977,0.1223 -31.0451,0.8186 -44.9709,3.1414 -5.2835,0.8813 -15.7696,2.8425 -23.2751,5.5383 -12.8658,4.6211 -25.2731,9.5843 -36.8199,18.0617 -4.7474,11.5469 -3.0307,34.6406 -0.2924,34.6406 0.099,-0.3953 12.8635,3.5036 13.8855,12.4239 0.8321,7.2621 4.4304,27.8756 14.7541,36.8412 6.0106,5.2201 14.1358,8.3043 21.9883,10.2159 11.5542,2.8129 23.7515,1.6409 35.6425,1.5218 19.6598,-0.1971 38.8876,0.5642 58.8664,-3.6964 8.7769,-1.9756 12.7631,-4.2555 17.4666,-6.8212 4.7035,-2.5662 6.7507,-3.6714 10.8521,-7.8557 4.1013,-4.1847 9.6515,-12.3264 12.4023,-17.8803 2.7508,-5.5542 3.0494,-9.439 4.7542,-14.6759 1.7048,-5.2364 3.9541,-12.3931 5.4777,-16.7434 1.5236,-4.3503 1.8597,-6.5789 3.514,-9.4051 1.6543,-2.8258 2.9735,-6.0259 5.8395,-7.3369 2.866,-1.311 6.2448,-1.5912 9.8185,-1.3436 3.5737,0.2479 8.4868,0.7239 11.9378,2.9972 3.4508,2.2731 4.2499,3.6208 7.9059,10.1799 3.656,6.5595 9.8942,20.7814 14.4183,28.1641 4.524,7.3832 7.4379,12.995 12.1951,17.5688 11.2855,12.1285 24.8243,12.6066 35.45,13.3337 13.5349,0.9303 46.0092,0.3987 60.7715,-0.3101 14.7623,-0.7093 18.1059,-0.907 25.7349,-2.6876 7.629,-1.7807 11.8693,-3.061 15.6068,-5.4782 3.7375,-2.4167 8.6089,-4.3588 11.575,-7.6489 2.9661,-3.2901 6.4617,-7.3038 8.4749,-12.4018 2.0132,-5.0982 3.0385,-10.3986 3.7212,-16.5354 0.6827,-6.1367 0.9898,-15.255 3.8236,-20.6705 2.1924,-4.1899 7.824,-5.4658 10.7406,-8.1556 9.0983,3.9591 15.4363,7.1972 23.4088,10.1645 7.7409,2.8811 23.6505,7.3928 23.6505,7.3928 l 2.9233,-7.0159 c 0,0 -20.8126,-18.1246 -31.8415,-26.3977 z"
       id="path3838"
       inkscape:connector-curvature="0"
       sodipodi:nodetypes="ccccccssssscccccccccccccccsccccccccscccccscccscccacsasccccccacaccssaacccscccccccscccccscsccacca"
       inkscape:label="home.graphic.glasses" />
  </g>
</svg>
